<svg width="11" height="10" viewBox="0 0 11 10" fill="none" xmlns="http://www.w3.org/2000/svg">
<path d="M4.74735 0.351323C4.89956 -0.117117 5.56228 -0.117119 5.71448 0.351322L6.60077 3.07903C6.66884 3.28852 6.86406 3.43036 7.08434 3.43036H9.95242C10.445 3.43036 10.6498 4.06064 10.2513 4.35015L7.93095 6.03597C7.75274 6.16544 7.67818 6.39494 7.74624 6.60444L8.63253 9.33214C8.78474 9.80058 8.24858 10.1901 7.8501 9.90061L5.52978 8.21479C5.35157 8.08532 5.11026 8.08532 4.93206 8.21479L2.61173 9.90061C2.21325 10.1901 1.6771 9.80058 1.82931 9.33214L2.71559 6.60444C2.78366 6.39494 2.70909 6.16544 2.53089 6.03597L0.210564 4.35016C-0.187916 4.06064 0.0168751 3.43036 0.509423 3.43036H3.3775C3.59778 3.43036 3.793 3.28852 3.86107 3.07903L4.74735 0.351323Z" fill="white"/>
</svg>
