<svg width="341" height="192" viewBox="0 0 341 192" fill="none" xmlns="http://www.w3.org/2000/svg">
<line x1="0.961192" y1="1.52184e-08" x2="0.961184" y2="192" stroke="#A6C8FF" stroke-width="0.696311"/>
<line x1="0.966006" y1="38.353" x2="0.965999" y2="191.647" stroke="#80B0FF" stroke-width="0.705938" stroke-linecap="round" stroke-dasharray="2.82 4.94"/>
<line x1="57.4868" y1="38.353" x2="57.4868" y2="191.647" stroke="#80B0FF" stroke-width="0.705938" stroke-linecap="round" stroke-dasharray="2.82 4.94"/>
<line x1="114.007" y1="38.353" x2="114.007" y2="191.647" stroke="#80B0FF" stroke-width="0.705938" stroke-linecap="round" stroke-dasharray="2.82 4.94"/>
<line x1="170.528" y1="38.353" x2="170.528" y2="191.647" stroke="#80B0FF" stroke-width="0.705938" stroke-linecap="round" stroke-dasharray="2.82 4.94"/>
<line x1="227.049" y1="38.353" x2="227.049" y2="191.647" stroke="#80B0FF" stroke-width="0.705938" stroke-linecap="round" stroke-dasharray="2.82 4.94"/>
<line x1="283.569" y1="38.353" x2="283.569" y2="191.647" stroke="#80B0FF" stroke-width="0.705938" stroke-linecap="round" stroke-dasharray="2.82 4.94"/>
<line x1="340.09" y1="38.353" x2="340.09" y2="191.647" stroke="#80B0FF" stroke-width="0.705938" stroke-linecap="round" stroke-dasharray="2.82 4.94"/>
<path d="M339.742 109.744C318.29 109.744 268.699 110.872 241.948 115.382C208.509 121.019 134.375 128.771 111.661 128.771C88.9481 128.771 66.2879 137.35 55.1935 140.751C44.0991 144.151 17.7294 152.857 1.00549 160.481" stroke="#80B0FF" stroke-width="2.11781"/>
<path d="M175.181 125.184C175.181 127.513 173.269 129.42 170.887 129.42C168.505 129.42 166.593 127.513 166.593 125.184C166.593 122.856 168.505 120.949 170.887 120.949C173.269 120.949 175.181 122.856 175.181 125.184Z" fill="white" stroke="#80B0FF" stroke-width="2.11781"/>
<path d="M0.618347 160.834C13.0266 151.908 41.3132 132.999 55.1936 128.771C72.5441 123.486 105.352 114.677 111.662 115.382C117.971 116.086 161.189 113.62 168.761 109.744C176.332 105.868 203.146 105.868 259.93 78.0333C305.356 55.7651 332.066 54.896 339.742 57.245" stroke="#0061FF" stroke-width="2.11781"/>
<path d="M174.407 108.948C174.407 111.276 172.495 113.183 170.113 113.183C167.731 113.183 165.819 111.276 165.819 108.948C165.819 106.619 167.731 104.712 170.113 104.712C172.495 104.712 174.407 106.619 174.407 108.948Z" fill="white" stroke="#0061FF" stroke-width="2.11781"/>
</svg>
