<svg width="18" height="4" viewBox="0 0 18 4" fill="none" xmlns="http://www.w3.org/2000/svg">
<path d="M1.81114 2.93438C2.30742 2.93438 2.70974 2.48178 2.70974 1.92348C2.70974 1.36517 2.30742 0.91257 1.81114 0.91257C1.31486 0.91257 0.912539 1.36517 0.912539 1.92348C0.912539 2.48178 1.31486 2.93438 1.81114 2.93438Z" stroke="#9EA8BA" stroke-width="1.80537"/>
<path d="M9.00011 2.93435C9.49639 2.93435 9.89871 2.48175 9.89871 1.92345C9.89871 1.36514 9.49639 0.912539 9.00011 0.912539C8.50383 0.912539 8.10151 1.36514 8.10151 1.92345C8.10151 2.48175 8.50383 2.93435 9.00011 2.93435Z" stroke="#9EA8BA" stroke-width="1.80537"/>
<path d="M16.1889 2.93435C16.6852 2.93435 17.0875 2.48175 17.0875 1.92345C17.0875 1.36514 16.6852 0.912539 16.1889 0.912539C15.6926 0.912539 15.2903 1.36514 15.2903 1.92345C15.2903 2.48175 15.6926 2.93435 16.1889 2.93435Z" stroke="#9EA8BA" stroke-width="1.80537"/>
</svg>
