<svg width="11" height="10" viewBox="0 0 11 10" fill="none" xmlns="http://www.w3.org/2000/svg">
<path d="M4.74734 0.35133C4.89955 -0.117109 5.56226 -0.11711 5.71447 0.351329L6.60075 3.07903C6.66882 3.28852 6.86404 3.43036 7.08432 3.43036H9.95239C10.4449 3.43036 10.6497 4.06064 10.2512 4.35015L7.93093 6.03596C7.75272 6.16544 7.67816 6.39493 7.74622 6.60443L8.63251 9.33213C8.78471 9.80056 8.24856 10.1901 7.85008 9.90059L5.52977 8.21478C5.35156 8.08531 5.11025 8.08531 4.93205 8.21478L2.61173 9.90059C2.21325 10.1901 1.6771 9.80057 1.8293 9.33213L2.71559 6.60443C2.78366 6.39493 2.70909 6.16544 2.53088 6.03596L0.210563 4.35015C-0.187915 4.06064 0.0168751 3.43036 0.509422 3.43036H3.37749C3.59777 3.43036 3.79299 3.28852 3.86106 3.07903L4.74734 0.35133Z" fill="white"/>
</svg>
