<svg width="11" height="10" viewBox="0 0 11 10" fill="none" xmlns="http://www.w3.org/2000/svg">
<path d="M4.74734 0.351322C4.89954 -0.117117 5.56226 -0.117118 5.71447 0.351321L6.60075 3.07902C6.66882 3.28851 6.86404 3.43035 7.08431 3.43035H9.95239C10.4449 3.43035 10.6497 4.06063 10.2512 4.35014L7.93092 6.03595C7.75272 6.16543 7.67815 6.39492 7.74622 6.60441L8.6325 9.33211C8.78471 9.80055 8.24856 10.1901 7.85008 9.90058L5.52976 8.21477C5.35156 8.08529 5.11025 8.08529 4.93204 8.21477L2.61173 9.90058C2.21325 10.1901 1.6771 9.80055 1.8293 9.33211L2.71559 6.60442C2.78365 6.39492 2.70909 6.16543 2.53088 6.03595L0.210563 4.35014C-0.187915 4.06063 0.0168751 3.43035 0.509421 3.43035H3.37749C3.59777 3.43035 3.79299 3.28851 3.86106 3.07902L4.74734 0.351322Z" fill="white"/>
</svg>
