<svg width="30" height="30" viewBox="0 0 30 30" fill="none" xmlns="http://www.w3.org/2000/svg">
<path d="M11.25 12.5H12.5C12.8315 12.5 13.1495 12.3683 13.3839 12.1339C13.6183 11.8995 13.75 11.5815 13.75 11.25C13.75 10.9185 13.6183 10.6005 13.3839 10.3661C13.1495 10.1317 12.8315 10 12.5 10H11.25C10.9185 10 10.6005 10.1317 10.3661 10.3661C10.1317 10.6005 10 10.9185 10 11.25C10 11.5815 10.1317 11.8995 10.3661 12.1339C10.6005 12.3683 10.9185 12.5 11.25 12.5ZM11.25 15C10.9185 15 10.6005 15.1317 10.3661 15.3661C10.1317 15.6005 10 15.9185 10 16.25C10 16.5815 10.1317 16.8995 10.3661 17.1339C10.6005 17.3683 10.9185 17.5 11.25 17.5H18.75C19.0815 17.5 19.3995 17.3683 19.6339 17.1339C19.8683 16.8995 20 16.5815 20 16.25C20 15.9185 19.8683 15.6005 19.6339 15.3661C19.3995 15.1317 19.0815 15 18.75 15H11.25ZM25 11.175C24.987 11.0602 24.9618 10.947 24.925 10.8375V10.725C24.8649 10.5965 24.7847 10.4783 24.6875 10.375L17.1875 2.875C17.0842 2.77777 16.966 2.6976 16.8375 2.6375C16.8002 2.6322 16.7623 2.6322 16.725 2.6375C16.598 2.56468 16.4578 2.51793 16.3125 2.5H8.75C7.75544 2.5 6.80161 2.89509 6.09835 3.59835C5.39509 4.30161 5 5.25544 5 6.25V23.75C5 24.7446 5.39509 25.6984 6.09835 26.4017C6.80161 27.1049 7.75544 27.5 8.75 27.5H21.25C22.2446 27.5 23.1984 27.1049 23.9017 26.4017C24.6049 25.6984 25 24.7446 25 23.75V11.25C25 11.25 25 11.25 25 11.175ZM17.5 6.7625L20.7375 10H18.75C18.4185 10 18.1005 9.8683 17.8661 9.63388C17.6317 9.39946 17.5 9.08152 17.5 8.75V6.7625ZM22.5 23.75C22.5 24.0815 22.3683 24.3995 22.1339 24.6339C21.8995 24.8683 21.5815 25 21.25 25H8.75C8.41848 25 8.10054 24.8683 7.86612 24.6339C7.6317 24.3995 7.5 24.0815 7.5 23.75V6.25C7.5 5.91848 7.6317 5.60054 7.86612 5.36612C8.10054 5.1317 8.41848 5 8.75 5H15V8.75C15 9.74456 15.3951 10.6984 16.0983 11.4017C16.8016 12.1049 17.7554 12.5 18.75 12.5H22.5V23.75ZM18.75 20H11.25C10.9185 20 10.6005 20.1317 10.3661 20.3661C10.1317 20.6005 10 20.9185 10 21.25C10 21.5815 10.1317 21.8995 10.3661 22.1339C10.6005 22.3683 10.9185 22.5 11.25 22.5H18.75C19.0815 22.5 19.3995 22.3683 19.6339 22.1339C19.8683 21.8995 20 21.5815 20 21.25C20 20.9185 19.8683 20.6005 19.6339 20.3661C19.3995 20.1317 19.0815 20 18.75 20Z" fill="#75839D"/>
</svg>
