<svg width="24" height="24" viewBox="0 0 24 24" fill="none" xmlns="http://www.w3.org/2000/svg">
<path d="M20.1603 4.99992C19.1002 3.93713 17.6951 3.28846 16.1986 3.17109C14.7021 3.05372 13.213 3.47539 12.0003 4.35992C10.7279 3.41356 9.14427 2.98443 7.5682 3.15896C5.99212 3.33348 4.54072 4.0987 3.50625 5.30051C2.47178 6.50231 1.9311 8.05144 1.99308 9.63594C2.05506 11.2204 2.71509 12.7226 3.84028 13.8399L10.0503 20.0599C10.5703 20.5717 11.2707 20.8585 12.0003 20.8585C12.7299 20.8585 13.4303 20.5717 13.9503 20.0599L20.1603 13.8399C21.3279 12.6652 21.9832 11.0762 21.9832 9.41992C21.9832 7.76365 21.3279 6.17465 20.1603 4.99992ZM18.7503 12.4599L12.5403 18.6699C12.4696 18.7413 12.3855 18.7979 12.2928 18.8366C12.2001 18.8752 12.1007 18.8951 12.0003 18.8951C11.8999 18.8951 11.8004 18.8752 11.7077 18.8366C11.615 18.7979 11.5309 18.7413 11.4603 18.6699L5.25028 12.4299C4.46603 11.6283 4.02689 10.5514 4.02689 9.42992C4.02689 8.30846 4.46603 7.23158 5.25028 6.42992C6.04943 5.64091 7.12725 5.19849 8.25028 5.19849C9.3733 5.19849 10.4511 5.64091 11.2503 6.42992C11.3432 6.52365 11.4538 6.59804 11.5757 6.64881C11.6976 6.69958 11.8283 6.72572 11.9603 6.72572C12.0923 6.72572 12.223 6.69958 12.3449 6.64881C12.4667 6.59804 12.5773 6.52365 12.6703 6.42992C13.4694 5.64091 14.5472 5.19849 15.6703 5.19849C16.7933 5.19849 17.8711 5.64091 18.6703 6.42992C19.4653 7.22107 19.9189 8.29211 19.9338 9.41361C19.9488 10.5351 19.5239 11.6179 18.7503 12.4299V12.4599Z" fill="#D13329"/>
</svg>
