<svg width="20" height="20" viewBox="0 0 20 20" fill="none" xmlns="http://www.w3.org/2000/svg">
<path d="M10 12.5C10.8841 12.5 11.7319 12.1488 12.3571 11.5237C12.9822 10.8985 13.3334 10.0507 13.3334 9.16665V4.16665C13.3334 3.28259 12.9822 2.43474 12.3571 1.80962C11.7319 1.1845 10.8841 0.833313 10 0.833313C9.11599 0.833313 8.26814 1.1845 7.64302 1.80962C7.0179 2.43474 6.66671 3.28259 6.66671 4.16665V9.16665C6.66671 10.0507 7.0179 10.8985 7.64302 11.5237C8.26814 12.1488 9.11599 12.5 10 12.5ZM8.33337 4.16665C8.33337 3.72462 8.50897 3.3007 8.82153 2.98813C9.13409 2.67557 9.55801 2.49998 10 2.49998C10.4421 2.49998 10.866 2.67557 11.1786 2.98813C11.4911 3.3007 11.6667 3.72462 11.6667 4.16665V9.16665C11.6667 9.60867 11.4911 10.0326 11.1786 10.3452C10.866 10.6577 10.4421 10.8333 10 10.8333C9.55801 10.8333 9.13409 10.6577 8.82153 10.3452C8.50897 10.0326 8.33337 9.60867 8.33337 9.16665V4.16665ZM16.6667 9.16665C16.6667 8.94563 16.5789 8.73367 16.4226 8.57739C16.2663 8.42111 16.0544 8.33331 15.8334 8.33331C15.6124 8.33331 15.4004 8.42111 15.2441 8.57739C15.0878 8.73367 15 8.94563 15 9.16665C15 10.4927 14.4733 11.7645 13.5356 12.7022C12.5979 13.6399 11.3261 14.1666 10 14.1666C8.67396 14.1666 7.40219 13.6399 6.46451 12.7022C5.52682 11.7645 5.00004 10.4927 5.00004 9.16665C5.00004 8.94563 4.91224 8.73367 4.75596 8.57739C4.59968 8.42111 4.38772 8.33331 4.16671 8.33331C3.94569 8.33331 3.73373 8.42111 3.57745 8.57739C3.42117 8.73367 3.33337 8.94563 3.33337 9.16665C3.33485 10.7894 3.92814 12.3559 5.00204 13.5725C6.07594 14.789 7.55669 15.5721 9.16671 15.775V17.5H7.50004C7.27903 17.5 7.06707 17.5878 6.91079 17.7441C6.7545 17.9003 6.66671 18.1123 6.66671 18.3333C6.66671 18.5543 6.7545 18.7663 6.91079 18.9226C7.06707 19.0788 7.27903 19.1666 7.50004 19.1666H12.5C12.7211 19.1666 12.933 19.0788 13.0893 18.9226C13.2456 18.7663 13.3334 18.5543 13.3334 18.3333C13.3334 18.1123 13.2456 17.9003 13.0893 17.7441C12.933 17.5878 12.7211 17.5 12.5 17.5H10.8334V15.775C12.4434 15.5721 13.9241 14.789 14.998 13.5725C16.0719 12.3559 16.6652 10.7894 16.6667 9.16665Z" fill="#BAC1CE"/>
</svg>
