<svg width="14" height="14" viewBox="0 0 14 14" fill="none" xmlns="http://www.w3.org/2000/svg">
<g clip-path="url(#clip0_429_1879)">
<path d="M10.2128 4.47917C9.92109 4.16065 9.46751 3.73072 9.27454 4.70148C9.20892 5.03154 9.0556 5.28598 8.92422 5.49084C8.7826 4.7741 8.35653 4.03224 7.95507 3.53204C7.80484 3.3449 7.27181 2.60096 7.1694 1.35638C7.15412 1.17063 6.93348 1.08341 6.79548 1.2087C5.47663 2.40591 4.75274 4.0525 4.72586 5.90622C4.72586 5.90622 4.17669 5.44331 3.87834 4.58215C3.798 4.35025 3.4871 4.306 3.35222 4.51106C3.32632 4.55043 3.30231 4.58986 3.28066 4.62814C2.26311 6.42736 1.77363 8.61226 2.22615 10.645C2.98275 14.0492 7.98758 15.0009 10.6372 12.8613C13.2295 10.768 12.4055 6.87181 10.2128 4.47917Z" fill="#ED694A"/>
<path d="M2.93048 10.8587C2.48321 8.80425 2.95664 6.59808 3.95029 4.77069C3.92516 4.71007 3.90099 4.64737 3.8784 4.58218C3.79807 4.35028 3.48717 4.30604 3.35228 4.51109C3.32639 4.55047 3.30241 4.5899 3.28075 4.62818C2.26321 6.4274 1.77373 8.6123 2.22624 10.645C2.57134 12.1978 3.80039 13.24 5.28655 13.7116C4.12718 13.15 3.21925 12.1872 2.93048 10.8587Z" fill="#D8553A"/>
<path d="M5.43364 5.87209C5.48858 4.18971 6.09708 2.68116 7.18618 1.52227C7.17869 1.45845 7.17314 1.40139 7.16956 1.35807C7.15394 1.17074 6.94137 1.07679 6.80397 1.20098C5.53017 2.35265 4.75377 3.98258 4.72591 5.90616L4.96432 6.0913C5.08173 6.18249 5.24082 6.17853 5.35295 6.09499C5.41986 6.03828 5.42946 5.9527 5.43364 5.87209Z" fill="#D8553A"/>
<path d="M9.41278 6.96764C9.19731 6.73238 8.86227 6.41481 8.71975 7.13184C8.6713 7.37561 8.55802 7.56357 8.46103 7.71489C8.35644 7.18549 8.04171 6.63752 7.7452 6.26808C7.63424 6.12986 7.24054 5.58039 7.16488 4.66106C7.15359 4.52385 6.99064 4.45946 6.88871 4.55199C5.91459 5.43626 5.37988 6.65251 5.36006 8.02166C5.36006 8.02166 4.95441 7.67976 4.73407 7.04369C4.67474 6.8724 4.44508 6.83973 4.34547 6.99119C4.32635 7.02025 4.30861 7.0494 4.29261 7.07767C3.54101 8.40661 3.17947 10.0204 3.5137 11.5219C4.07255 14.0363 7.7692 14.7393 9.72625 13.1589C11.641 11.6127 11.0323 8.73492 9.41278 6.96764Z" fill="#F4A32C"/>
<path d="M4.21076 11.7191C3.91485 10.2514 4.22134 8.67654 4.87117 7.36513C4.82165 7.26817 4.77473 7.16099 4.73409 7.04374C4.67476 6.87245 4.4451 6.83975 4.34548 6.99121C4.32637 7.02027 4.30863 7.04942 4.29263 7.07772C3.54106 8.40666 3.17955 10.0205 3.51371 11.5219C3.77364 12.6913 4.71238 13.4686 5.83906 13.8069C5.03857 13.4055 4.40829 12.7002 4.21076 11.7191Z" fill="#E89528"/>
<path d="M8.68264 9.23957C8.53679 9.08032 8.30995 8.86532 8.21348 9.35073C8.18069 9.51577 8.10399 9.64298 8.03831 9.74541C7.96749 9.38701 7.75448 9.01609 7.55373 8.76601C7.47864 8.67244 7.21212 8.30048 7.16088 7.67816C7.15322 7.58528 7.04294 7.54166 6.97393 7.60434C6.31451 8.20295 5.95256 9.02626 5.93913 9.95308C5.93913 9.95308 5.66452 9.72162 5.51538 9.29106C5.47522 9.17512 5.31977 9.153 5.25234 9.25552C5.23938 9.27518 5.2274 9.29492 5.21654 9.31406C4.70779 10.2137 4.46303 11.3061 4.68927 12.3225C5.06757 14.0246 7.57 14.5005 8.89477 13.4307C9.34844 13.0643 9.62972 12.5481 9.68676 11.9771C9.77287 11.1122 9.44001 10.066 8.68264 9.23957Z" fill="#F4D44E"/>
<path d="M8.00493 11.3478C7.92366 11.2591 7.7973 11.1393 7.74355 11.4097C7.72528 11.5017 7.68257 11.5726 7.64596 11.6296C7.6065 11.43 7.48783 11.2233 7.37599 11.084C7.33416 11.0318 7.18565 10.8246 7.15711 10.4779C7.15284 10.4261 7.09137 10.4019 7.05295 10.4368C6.68559 10.7703 6.4839 11.229 6.47644 11.7453C6.47644 11.7453 6.32345 11.6164 6.24035 11.3765C6.21796 11.3119 6.13136 11.2995 6.09382 11.3567C6.0866 11.3676 6.07992 11.3786 6.07391 11.3893C5.79046 11.8905 5.6541 12.4991 5.78016 13.0654C6.06721 14.3569 8.42009 14.3177 8.56441 12.8729C8.61231 12.3911 8.42687 11.8082 8.00493 11.3478Z" fill="#EAE9E8"/>
<path d="M6.32638 13.3217C6.20032 12.8152 6.33669 12.2707 6.62013 11.8224C6.62615 11.8129 6.63285 11.803 6.64004 11.7932C6.67761 11.7421 6.76421 11.7531 6.78657 11.8109C6.86967 12.0255 7.02266 12.1409 7.02266 12.1409C7.02881 11.7613 7.1663 11.4168 7.41881 11.1405C7.36235 11.0623 7.18959 10.8737 7.15703 10.478C7.15276 10.4262 7.09129 10.402 7.05287 10.4368C6.68551 10.7703 6.48382 11.229 6.47636 11.7454C6.47636 11.7454 6.32337 11.6164 6.24027 11.3766C6.21791 11.312 6.13128 11.2996 6.09374 11.3568C6.08652 11.3677 6.07985 11.3787 6.07383 11.3894C5.79039 11.8906 5.65402 12.4992 5.78008 13.0655C5.89673 13.5903 6.37595 13.9058 6.90576 13.9819C6.61997 13.8416 6.40032 13.6193 6.32638 13.3217Z" fill="#F7E7A1"/>
<path d="M5.04766 1.86061C5.63897 1.37966 5.63766 0.479855 5.04766 0C4.45635 0.480922 4.45764 1.38075 5.04766 1.86061Z" fill="#D8553A"/>
<path d="M12.135 5.72065C12.7263 5.2397 12.725 4.3399 12.135 3.86005C11.8647 4.07984 11.545 5.2408 12.135 5.72065Z" fill="#D8553A"/>
<path d="M1.66212 6.08687C2.08827 5.74024 2.08734 5.09178 1.66212 4.74591C1.46735 4.90431 1.2369 5.74103 1.66212 6.08687Z" fill="#D8553A"/>
<path d="M9.04284 3.20156C9.469 2.85492 9.46807 2.20647 9.04284 1.8606C8.61669 2.20721 8.61765 2.85572 9.04284 3.20156Z" fill="#D8553A"/>
<path d="M5.90378 7.80182C6.00164 6.6465 6.44283 5.61922 7.18363 4.83607C7.17614 4.7793 7.16982 4.72103 7.1649 4.66112C7.15361 4.52391 6.99066 4.45952 6.88873 4.55205C6.11681 5.25276 5.6214 6.1621 5.43891 7.19063L5.43863 7.19055C5.4251 7.26684 5.40831 7.37797 5.3977 7.46528C5.39773 7.46536 5.39775 7.46541 5.39781 7.46549C5.37563 7.64771 5.36278 7.83321 5.36005 8.02175C5.38066 8.02577 5.84737 8.26565 5.90378 7.80182Z" fill="#E89528"/>
<path d="M5.3712 12.564C5.17008 11.6145 5.34137 10.6019 5.73927 9.72459C5.66219 9.6165 5.57783 9.4713 5.51541 9.29105C5.47521 9.17511 5.31979 9.15299 5.25233 9.2555C5.2394 9.27516 5.22737 9.29491 5.21654 9.31405C4.70778 10.2137 4.46303 11.3061 4.68927 12.3225C4.86646 13.1196 5.5095 13.6478 6.27926 13.8742C5.8312 13.5768 5.49228 13.1365 5.3712 12.564Z" fill="#E8C842"/>
<path d="M6.66514 9.53816C6.7318 9.0617 6.92668 8.53673 7.23345 8.09783C7.20004 7.97391 7.17376 7.83389 7.16094 7.67816C7.15328 7.58528 7.04297 7.54166 6.97399 7.60434C6.56312 7.97733 6.26821 8.43774 6.10068 8.95588L6.10024 8.95577C6.07388 9.03717 6.03661 9.17203 6.01402 9.27848C6.01422 9.27843 6.01441 9.27843 6.0146 9.27834C5.96833 9.49556 5.9426 9.72098 5.93924 9.95305C6.30816 9.9991 6.61335 9.90774 6.66514 9.53816Z" fill="#E8C842"/>
</g>
<defs>
<clipPath id="clip0_429_1879">
<rect width="14" height="14" fill="white"/>
</clipPath>
</defs>
</svg>
