<svg width="12" height="12" viewBox="0 0 12 12" fill="none" xmlns="http://www.w3.org/2000/svg">
<path fill-rule="evenodd" clip-rule="evenodd" d="M6 0C2.68607 0 0 2.68607 0 6C0 9.31393 2.68607 12 6 12C9.31393 12 12 9.31393 12 6C12 2.68607 9.31393 0 6 0ZM5.99978 0.900015C8.81665 0.900015 11.0998 3.18314 11.0998 6.00002C11.0998 8.81689 8.81665 11.1 5.99978 11.1C3.18291 11.1 0.89978 8.81689 0.89978 6.00002C0.89978 3.18314 3.18291 0.900015 5.99978 0.900015ZM6.24276 3.44676C6.21296 3.22712 6.02468 3.05783 5.79686 3.05783C5.54833 3.05783 5.34686 3.2593 5.34686 3.50783V6.41603L5.35188 6.48307C5.37176 6.61511 5.44966 6.7329 5.56632 6.80249L7.82832 8.15189L7.88287 8.17964C8.08676 8.26658 8.32861 8.19162 8.44532 7.99597L8.47308 7.94143C8.56002 7.73753 8.48506 7.49569 8.28941 7.37897L6.24662 6.15989L6.24686 3.50783L6.24276 3.44676Z" fill="#262B35"/>
</svg>
