<svg width="16" height="16" viewBox="0 0 16 16" fill="none" xmlns="http://www.w3.org/2000/svg">
<path d="M12 2.98669C10.9391 1.92582 9.50028 1.32983 7.99999 1.32983C6.4997 1.32983 5.06086 1.92582 3.99999 2.98669C2.93913 4.04755 2.34314 5.4864 2.34314 6.98669C2.34314 8.48698 2.93913 9.92582 3.99999 10.9867L7.51333 14.5067C7.5753 14.5692 7.64904 14.6188 7.73028 14.6526C7.81152 14.6865 7.89865 14.7039 7.98666 14.7039C8.07467 14.7039 8.1618 14.6865 8.24304 14.6526C8.32428 14.6188 8.39802 14.5692 8.45999 14.5067L12 10.9534C13.0564 9.8969 13.6499 8.46406 13.6499 6.97002C13.6499 5.47599 13.0564 4.04314 12 2.98669ZM11.0467 10L7.99999 13.06L4.95333 10C4.35142 9.39757 3.94164 8.63019 3.77579 7.79488C3.60994 6.95958 3.69545 6.09385 4.02153 5.30714C4.34761 4.52043 4.89961 3.84805 5.60775 3.37501C6.31589 2.90196 7.14838 2.64948 7.99999 2.64948C8.8516 2.64948 9.6841 2.90196 10.3922 3.37501C11.1004 3.84805 11.6524 4.52043 11.9785 5.30714C12.3045 6.09385 12.3901 6.95958 12.2242 7.79488C12.0583 8.63019 11.6486 9.39757 11.0467 10ZM5.99999 4.94002C5.4618 5.47987 5.15959 6.21107 5.15959 6.97336C5.15959 7.73564 5.4618 8.46684 5.99999 9.00669C6.39983 9.40721 6.90905 9.68074 7.46376 9.79296C8.01847 9.90517 8.59396 9.85108 9.11804 9.63746C9.64212 9.42384 10.0914 9.06021 10.4096 8.59219C10.7278 8.12417 10.9007 7.5726 10.9067 7.00669C10.9097 6.62882 10.8369 6.25419 10.6926 5.90495C10.5483 5.5557 10.3355 5.23893 10.0667 4.97336C9.80244 4.70307 9.48738 4.48771 9.13961 4.33967C8.79184 4.19162 8.41822 4.11381 8.04026 4.11071C7.6623 4.10761 7.28746 4.17929 6.93731 4.32161C6.58716 4.46394 6.26861 4.67411 5.99999 4.94002ZM9.12666 8.06002C8.87402 8.31652 8.54013 8.47729 8.18208 8.51486C7.82402 8.55242 7.46404 8.46445 7.16366 8.26597C6.86329 8.0675 6.64119 7.77085 6.53533 7.42674C6.42947 7.08264 6.44643 6.71245 6.5833 6.37946C6.72017 6.04647 6.96846 5.77137 7.28572 5.60118C7.60297 5.43099 7.96949 5.37629 8.32262 5.44643C8.67574 5.51657 8.99353 5.70719 9.22167 5.98571C9.4498 6.26422 9.5741 6.61334 9.57333 6.97336C9.56363 7.38487 9.39099 7.77571 9.09333 8.06002H9.12666Z" fill="#0061FF"/>
</svg>
